<?xml version="1.0" standalone="no"?><!DOCTYPE svg PUBLIC "-//W3C//DTD SVG 1.1//EN" "http://www.w3.org/Graphics/SVG/1.1/DTD/svg11.dtd"><svg t="1527064644024" class="icon" style="" viewBox="0 0 1024 1024" version="1.1" xmlns="http://www.w3.org/2000/svg" p-id="1833" xmlns:xlink="http://www.w3.org/1999/xlink" width="100" height="100"><defs><style type="text/css"></style></defs><path d="M841.455477 151.771659c10.952446 0 18.284435 5.696746 21.680789 9.092075s9.092076 10.727319 9.092075 21.680789v658.910954c0 10.952446-5.696746 18.285458-9.092075 21.680789s-10.727319 9.092076-21.680789 9.092075H182.544523c-10.95347 0-18.284435-5.696746-21.680789-9.092075s-9.092076-10.727319-9.092075-21.680789V182.544523c0-10.95347 5.696746-18.285458 9.092075-21.680789s10.727319-9.092076 21.680789-9.092075h658.910954m0-61.398372H182.544523c-50.694589 0-92.171236 41.476647-92.171236 92.171236v658.910954c0 50.693566 41.476647 92.171236 92.171236 92.171236h658.910954c50.693566 0 92.171236-41.476647 92.171236-92.171236V182.544523c0-50.694589-41.47767-92.171236-92.171236-92.171236z" fill="#ed351e" p-id="1834"></path><path d="M198.445678 259.374352c11.923564-5.208629 23.545252-10.481725 35.33374-15.352663 5.895267-2.435469 11.974729-4.662183 18.178011-6.062066 13.063527-2.949168 21.043269 0.214894 27.931143 11.777231 5.535063 9.29162 12.866029 15.996322 22.399149 20.8734 13.594623 6.954389 26.972305 14.335497 40.405245 21.603017 2.38942 1.292436 6.15621 2.532683 6.634094 4.455476 2.880607 11.590989 13.387915 12.308327 21.582551 16.976649 19.357883 11.027148 38.340213 22.804379 56.855916 35.202757 95.723132 64.097854 191.271278 128.454604 286.801005 192.84103 6.564509 4.424776 13.623275 8.909927 18.431791 14.968923 8.442276 10.638291 20.343327 15.688307 31.131021 22.671349 11.539824 7.470135 22.807449 15.360849 34.187637 23.076578 9.863648 6.687306 19.543102 13.670348 29.653367 19.962657 5.185093 3.226484 6.476505 6.54609 5.441942 12.69309-6.274914 37.281091-18.314111 72.846098-31.151487 108.208491-2.189875 6.031367-4.172019 12.137435-6.255471 18.207687-4.308119 12.550851-13.750165 19.432585-26.355251 18.98233-25.591865-0.914836-51.14689-3.172249-76.667123-5.438873-3.451612-0.306992-7.188726-3.297093-9.825787-5.992481-32.0653-32.774451-63.964824-65.709561-95.843881-98.66616-2.318812-2.397606-4.357238-5.139044-6.157234-7.956206-15.274892-23.902386-40.552601-37.631062-59.055001-58.222029-6.682189-7.436366-12.912078-15.283078-19.267832-23.008017-2.313695-2.813069-4.13211-6.066159-6.621814-8.696056-28.343535-29.940916-56.561204-60.005652-85.25778-89.60683-17.850553-18.413372-36.94033-35.636638-54.581106-54.241369-14.626115-15.426341-27.731598-32.282241-41.909505-48.146556-11.393491-12.749372-23.277146-25.066909-35.134195-37.393655-27.053146-28.124548-54.221926-56.136531-80.883145-83.717704zM546.048467 251.794723c22.293749-12.756535 43.612287-20.828374 68.955488-23.663956 33.58184-3.756557 67.147306-13.32447 99.012038-25.038256 27.171849-9.988492 48.818869-8.403391 70.252017 10.995425 9.462512 8.56405 20.700461 15.655562 32.140001 21.415752 12.651135 6.369058 14.728446 16.560164 16.485463 28.918634 3.390213 23.840988-4.185322 45.323255-8.845459 68.092841-6.113231 29.867238-20.795629 59.358923-12.615318 91.472317 0.937348 3.678786 0.12689 7.80271 0.12689 15.987113-12.799514-3.200902-26.570145-2.885723-35.198664-9.390881-76.082816-57.364499-151.254889-115.938546-226.664369-174.196391-1.116427-0.86367-1.822508-2.25946-3.648087-4.592598zM271.873014 542.645974l222.448348 213.536374c-28.630061 10.108219-54.660924 19.36914-80.754209 28.452006-5.084808 1.77032-11.94096 1.248434-15.364942 4.519943-17.292851 16.519232-39.209 12.872169-59.885925 16.248056-34.856879 5.690606-61.751413-6.314823-86.135776-30.124088-14.238282-13.901615-31.046087-25.182542-46.793746-37.520545-5.279237-4.136204-8.854669-8.095375-5.835915-15.746636 23.046902-58.410318 45.793976-116.938316 68.695568-175.406962 0.396019-1.01512 1.549286-1.733481 3.626597-3.958148z" fill="#ed351e" p-id="1835"></path></svg>